<svg xmlns="http://www.w3.org/2000/svg" viewBox="17 2 380 380" class="logo mb-20">
    <style>
        .color-foreground { color: #c1dbed; }
        .color-primary { color: #1d5d8e; }
    </style>
    <circle class="color-foreground" fill="currentColor" cx="171.72" cy="315.52" r="47.69"/>
    <path class="color-foreground" fill="currentColor"
          d="M293.01 278.7c-19.39,-16.98 -30.58,-41.44 -30.76,-67.18 -41.07,-10.1 -71.53,-47.15 -71.53,-91.33 0,-12.7 2.52,-24.81 7.09,-35.86 -8.27,-2.56 -17.02,-3.95 -26.09,-3.95 -49.9,0 -90.52,41.76 -90.52,93.1l0 37.07c0,0.1 0,0.21 0,0.31 0,26.04 -11.26,50.82 -30.87,67.94 -5.04,4.46 -7.92,10.87 -7.92,17.6 0,0.03 0,0.06 0,0.08 0,12.84 10.16,23.27 22.63,23.27l213.38 0c12.47,0 22.63,-10.45 22.63,-23.27 0,-6.78 -2.89,-13.24 -8.04,-17.78z"
          style="/* fill: #c1dbed; *//* stroke: #c1dbed; *//* color: #c1dbed; */"/>
    <path class="color-primary" fill="currentColor"
          d="M176.25 373.4c-29.95,-0.04 -54.22,-24.31 -54.26,-54.26 0,-5.99 4.86,-10.85 10.85,-10.85 6,0 10.86,4.86 10.86,10.85 0,17.96 14.61,32.56 32.55,32.56 17.94,0 32.56,-14.6 32.56,-32.56 0,-5.99 4.86,-10.85 10.85,-10.85 5.99,0 10.85,4.86 10.85,10.85 -0.04,29.95 -24.31,54.22 -54.26,54.26l0 0z"/>
    <path class="color-primary" fill="currentColor"
          d="M295.62 329.99l-238.74 0c-13.97,-0.03 -25.28,-11.37 -25.28,-25.35 0,-7.38 3.22,-14.4 8.81,-19.21 0.37,-0.32 0.76,-0.61 1.16,-0.87 21.21,-18.46 33.4,-45.22 33.4,-73.34 0,0 0,-0.02 0,-0.02l0 -40.37c0,-0.13 0,-0.28 0,-0.42 0,-46.72 32.17,-87.31 77.66,-97.98 0.81,-0.18 1.65,-0.28 2.5,-0.28 5.99,0 10.85,4.86 10.85,10.85 0,5.03 -3.45,9.4 -8.35,10.56 -35.71,8.37 -60.96,40.24 -60.96,76.92 0,0.11 0,0.23 0,0.35l0 40.37c0,34.94 -15.37,68.13 -42,90.73 -0.22,0.18 -0.41,0.34 -0.64,0.5 -0.5,0.63 -0.77,1.41 -0.77,2.21 0,0.01 0,0.02 0,0.03 0,1.97 1.65,3.62 3.62,3.62l238.74 0c1.97,0 3.62,-1.65 3.62,-3.62 0,-0.02 0,-0.03 0,-0.05 0,-0.8 -0.28,-1.57 -0.78,-2.19 -13.11,-10.97 -23.74,-24.69 -31.03,-40.15 -0.79,-1.55 -1.21,-3.27 -1.21,-5.01 0,-5.99 4.86,-10.85 10.85,-10.85 4.34,0 8.26,2.59 9.97,6.58 5.73,12.1 13.76,22.72 23.92,31.6 0.38,0.26 0.75,0.53 1.1,0.83 5.66,4.81 8.89,11.83 8.89,19.24 0,13.96 -11.36,25.32 -25.33,25.32l0 0z"
    />
    <circle cx="280" cy="120" r="80" fill="#fff"/>
    <path class="color-primary" fill="currentColor"
          d="M7374.81 5548.17c-1342.98,0 -2435.65,-1092.67 -2435.65,-2435.66 0,-1342.98 1092.68,-2435.65 2435.65,-2435.65 1342.98,0 2435.66,1092.68 2435.66,2435.66 0,1342.98 -1092.67,2435.65 -2435.66,2435.65zm0 -4309.24c-1033.09,0 -1873.58,840.49 -1873.58,1873.58 0,1033.09 840.49,1873.58 1873.58,1873.58 1033.1,0 1873.59,-840.49 1873.59,-1873.58 0,-1033.09 -840.49,-1873.58 -1873.59,-1873.58z"
          style="transform: scale(0.038);background: #fff;"/>
    <g class="color-primary g-clock" fill="currentColor" style="transform: scale(0.038);/* background: red; */">
        <g>
            <path fill="none" stroke="currentColor" stroke-width="543.88" stroke-linecap="round"
                  stroke-miterlimit="22.9256" d="M9051.05 562.92c280.21,184.23 528.13,413.38 733.8,678.25"/>
            <path fill="none" stroke="currentColor" stroke-width="543.88" stroke-linecap="round"
                  stroke-miterlimit="22.9256" d="M4968.12 1236.88c202.39,-259.7 445.49,-484.92 719.85,-666.95"/>
        </g>
        <path d="M7374.83 1495.21c-124.08,0 -224.85,100.63 -224.85,224.86 0,124.22 100.77,224.85 224.85,224.85 124.07,0 224.81,-100.65 224.81,-224.85 0,-124.21 -100.6,-224.86 -224.81,-224.86z"/>
        <path d="M8991.37 3111.91c0,-124.06 -100.63,-224.82 -224.84,-224.82 -124.21,0 -224.82,100.77 -224.82,224.82 0,124.06 100.63,224.79 224.82,224.79 124.2,0 224.84,-100.59 224.84,-224.79z"/>
        <path d="M7374.69 4728.48c124.08,0 224.84,-100.64 224.84,-224.86 0,-124.22 -100.78,-224.85 -224.84,-224.85 -124.08,0 -224.82,100.64 -224.82,224.85 0,124.21 100.61,224.86 224.82,224.86z"/>
        <path d="M5758.15 3111.77c0,124.07 100.62,224.83 224.83,224.83 124.21,0 224.83,-100.77 224.83,-224.83 0,-124.06 -100.64,-224.79 -224.83,-224.79 -124.19,0 -224.83,100.6 -224.83,224.79z"/>
        <g>
            <path d="M8364.75 2169.67c-115.26,-96.72 -288.61,-81.62 -385.26,33.57l-823.69 981.63c-96.99,115.59 -81.75,288.9 33.52,385.63 115.27,96.72 288.65,81.66 385.63,-33.92l823.68 -981.64c96.66,-115.19 81.39,-288.55 -33.88,-385.27l0 0z"/>
            <path d="M6443.75 2568.37c-96.72,115.27 -81.62,288.61 33.56,385.26l732.86 614.95c115.59,96.99 288.9,81.74 385.63,-33.52 96.72,-115.28 81.66,-288.65 -33.92,-385.63l-732.86 -614.94c-115.19,-96.65 -288.55,-81.39 -385.28,33.89l0.01 -0.01z"/>
        </g>
        <path d="M6231.68 1968.65c-87.74,87.75 -87.83,230.15 0,318 87.84,87.83 230.26,87.73 317.98,0 87.74,-87.74 87.81,-230.14 -0.02,-317.96 -87.83,-87.83 -230.14,-87.87 -317.96,-0.04z"/>
        <path d="M8517.84 4255.03c87.74,-87.74 87.83,-230.15 -0.01,-317.99 -87.84,-87.84 -230.25,-87.73 -317.98,0 -87.74,87.73 -87.81,230.13 0.02,317.96 87.83,87.82 230.14,87.86 317.97,0.03z"/>
        <path d="M6231.58 4254.91c87.73,87.73 230.14,87.82 317.97,-0.01 87.83,-87.83 87.72,-230.23 0,-317.96 -87.73,-87.72 -230.12,-87.79 -317.94,0.03 -87.82,87.82 -87.85,230.12 -0.03,317.94z"/>
    </g>
</svg>